<?xml version="1.0" encoding="utf-8"?>
<svg width="800px" height="800px" viewBox="0 0 64 64" xmlns="http://www.w3.org/2000/svg" xmlns:xlink="http://www.w3.org/1999/xlink" aria-hidden="true" role="img" class="iconify iconify--emojione-monotone" preserveAspectRatio="xMidYMid meet"><path d="M32 2C15.428 2 2 15.428 2 32s13.428 30 30 30s30-13.428 30-30S48.572 2 32 2zm0 57.5C16.836 59.5 4.5 47.164 4.5 32S16.836 4.5 32 4.5c15.163 0 27.5 12.336 27.5 27.5c0 1.357-.103 2.69-.294 3.996c-.838-5.66-5.69-10.766-5.69-10.766s-5.828 6.113-5.828 12.375c0 6.353 6.393 7.996 9.708 4.937C53.251 52.488 43.431 59.5 32 59.5z" fill="#000000"></path><circle cx="38.498" cy="35" r="5" fill="#000000"></circle><circle cx="15.498" cy="35" r="5" fill="#000000"></circle><path d="M21.992 21.58c.541-.469-.971-2.061-1.414-1.674a14.232 14.232 0 0 1-11.693 3.133c-.578-.113-1.088 2.021-.385 2.156a16.417 16.417 0 0 0 13.492-3.615" fill="#000000"></path><path d="M45.113 22.887c-4.168.748-8.455-.4-11.691-3.133c-.443-.389-1.955 1.205-1.412 1.674a16.418 16.418 0 0 0 13.492 3.615c.703-.135.191-2.27-.389-2.156" fill="#000000"></path><path d="M38.074 47.33c-5.766-1.549-12.049-.428-16.93 3.014c-1.205.869 1.053 4.027 2.252 3.152c3.223-2.268 8.352-3.834 13.66-2.432c1.423.377 2.536-3.308 1.018-3.734" fill="#000000"></path></svg>