<?xml version="1.0" encoding="UTF-8" standalone="no"?>
<svg
   xmlns:dc="http://purl.org/dc/elements/1.1/"
   xmlns:cc="http://creativecommons.org/ns#"
   xmlns:rdf="http://www.w3.org/1999/02/22-rdf-syntax-ns#"
   xmlns:svg="http://www.w3.org/2000/svg"
   xmlns="http://www.w3.org/2000/svg"
   xmlns:xlink="http://www.w3.org/1999/xlink"
   xmlns:sodipodi="http://sodipodi.sourceforge.net/DTD/sodipodi-0.dtd"
   xmlns:inkscape="http://www.inkscape.org/namespaces/inkscape"
   version="1.1"
   width="500"
   height="500"
   id="svg2"
   inkscape:version="0.48.1 "
   sodipodi:docname="Nautical_icon.svg">
  <sodipodi:namedview
     pagecolor="#ffffff"
     bordercolor="#666666"
     borderopacity="1"
     objecttolerance="10"
     gridtolerance="10"
     guidetolerance="10"
     inkscape:pageopacity="0"
     inkscape:pageshadow="2"
     inkscape:window-width="1280"
     inkscape:window-height="738"
     id="namedview53"
     showgrid="false"
     inkscape:zoom="1.038"
     inkscape:cx="250"
     inkscape:cy="273.97169"
     inkscape:window-x="-8"
     inkscape:window-y="-8"
     inkscape:window-maximized="1"
     inkscape:current-layer="svg2" />
  <metadata
     id="metadata24">
    <rdf:RDF>
      <cc:Work
         rdf:about="">
        <dc:format>image/svg+xml</dc:format>
        <dc:type
           rdf:resource="http://purl.org/dc/dcmitype/StillImage" />
        <dc:title />
      </cc:Work>
    </rdf:RDF>
  </metadata>
  <defs
     id="defs4" />
  <g
     id="g3148"
     transform="matrix(1.0022199,0,0,0.99999445,-0.0035937,0.0013875)">
    <g
       id="g3130">
      <use
         xlink:href="#g3712"
         height="500"
         width="500"
         y="0"
         x="0"
         id="use3764"
         transform="matrix(0,-1,1,0,0,499.17238)" />
      <use
         xlink:href="#g3712"
         height="500"
         width="500"
         y="0"
         x="0"
         id="use3760"
         transform="matrix(-1,0,0,-1,498.25615,500)" />
      <g
         id="g3712"
         transform="matrix(0.99879906,0,0,0.99879906,-1.4436182,0.34454173)">
        <path
           inkscape:connector-curvature="0"
           style="color:#000000;fill:#cc9933;fill-opacity:1;stroke:#000000;stroke-width:1.5;stroke-linecap:butt;stroke-linejoin:miter;stroke-miterlimit:4;stroke-opacity:1;stroke-dasharray:none;stroke-dashoffset:0;marker:none;visibility:visible;display:inline;overflow:visible;enable-background:accumulate"
           id="path3677"
           d="m 239.60466,213.00985 1.60628,-62.10981 c -0.16152,-3.33713 -4.33902,-8.12367 -6.51439,-12.33719 l 0,-5.33198 c 10.91681,-1.64503 21.83362,-1.44589 32.75043,0 l 0,5.622 c -2.21623,3.88731 -6.55146,8.35253 -6.42515,11.60097 l 0.98162,62.51924" />
        <path
           inkscape:connector-curvature="0"
           style="color:#000000;fill:none;stroke:#000000;stroke-width:1.5;stroke-linecap:butt;stroke-linejoin:miter;stroke-miterlimit:4;stroke-opacity:1;stroke-dasharray:none;stroke-dashoffset:0;marker:none;visibility:visible;display:inline;overflow:visible;enable-background:accumulate"
           id="path3675"
           d="m 234.3396,138.67441 c 10.9213,-1.22238 22.09847,-0.90955 33.3751,0" />
        <path
           inkscape:connector-curvature="0"
           style="color:#000000;fill:#cc9933;fill-opacity:1;stroke:#000000;stroke-width:2.5;stroke-linecap:butt;stroke-linejoin:miter;stroke-miterlimit:4;stroke-opacity:1;stroke-dasharray:none;stroke-dashoffset:0;marker:none;visibility:visible;display:inline;overflow:visible;enable-background:accumulate"
           id="path3706"
           d="m 235.9375,15.25 c -1.14532,11.907907 4.69865,36.156084 4.75,44.8125 0.0387,6.523779 -5.41289,12.035993 -6.09375,14.53125 l -0.0625,8.21875 32.46875,0 c -0.006,-2.732337 0.0357,-5.51808 -0.0625,-8.21875 -0.68086,-2.495257 -6.13245,-8.007471 -6.09375,-14.53125 C 260.8951,51.406084 266.2462,27.254471 265.5625,15.25 265.07806,6.7440395 258.71132,1.9011099 250.75,1.90625 242.35104,1.9116726 236.69764,7.3467924 235.9375,15.25 z" />
        <path
           inkscape:connector-curvature="0"
           style="color:#000000;fill:none;stroke:#000000;stroke-width:1.5;stroke-linecap:butt;stroke-linejoin:miter;stroke-miterlimit:4;stroke-opacity:1;stroke-dasharray:none;stroke-dashoffset:0;marker:none;visibility:visible;display:inline;overflow:visible;enable-background:accumulate"
           id="path3679"
           d="m 234.35696,75.141242 c 10.97957,-1.826254 21.95913,-1.875534 32.9387,0" />
      </g>
      <use
         xlink:href="#use3760"
         height="500"
         width="500"
         y="0"
         x="0"
         id="use3772"
         transform="matrix(0.70710678,-0.70710678,0.70710678,0.70710678,-103.80877,249.38346)" />
      <use
         xlink:href="#g3712"
         height="500"
         width="500"
         y="0"
         x="0"
         id="use3774"
         transform="matrix(0.70710678,-0.70710678,0.70710678,0.70710678,-103.80877,249.38346)" />
      <use
         xlink:href="#use3760"
         height="500"
         width="500"
         y="0"
         x="0"
         id="use3776"
         transform="matrix(0.70710678,0.70710678,-0.70710678,0.70710678,249.74462,-102.93684)" />
      <use
         xlink:href="#g3712"
         height="500"
         width="500"
         y="0"
         x="0"
         id="use3778"
         transform="matrix(0.70710678,0.70710678,-0.70710678,0.70710678,249.74462,-102.93684)" />
      <use
         xlink:href="#g3712"
         height="500"
         width="500"
         y="0"
         x="0"
         id="use3764-1"
         transform="matrix(0,-1,-1,0,498.89968,499.17238)" />
      <path
         inkscape:connector-curvature="0"
         style="color:#000000;fill:#cc9933;fill-opacity:1;stroke:#000000;stroke-width:2.99639726;stroke-linecap:butt;stroke-linejoin:miter;stroke-miterlimit:4;stroke-opacity:1;stroke-dasharray:none;stroke-dashoffset:0;marker:none;visibility:visible;display:inline;overflow:visible;enable-background:accumulate"
         id="path3681"
         d="m 249.12807,82.745464 c -92.39565,0 -167.298839,74.903186 -167.298839,167.298846 0,92.39565 74.903189,167.29884 167.298839,167.29884 92.39566,0 167.29885,-74.90319 167.29885,-167.29884 0,-92.39566 -74.90319,-167.298846 -167.29885,-167.298846 z m 0,49.190856 c 65.22305,0 118.10799,52.88494 118.10799,118.10799 0,65.22304 -52.88494,118.10799 -118.10799,118.10799 -65.22304,0 -118.10799,-52.88495 -118.10799,-118.10799 0,-65.22305 52.88495,-118.10799 118.10799,-118.10799 z" />
      <path
         inkscape:connector-curvature="0"
         style="color:#000000;fill:none;stroke:#000000;stroke-width:0.49939951;stroke-linecap:butt;stroke-linejoin:miter;stroke-miterlimit:4;stroke-opacity:1;stroke-dasharray:none;stroke-dashoffset:0;marker:none;visibility:visible;display:inline;overflow:visible;enable-background:accumulate"
         id="path3683"
         d="m 371.32487,250.0443 a 122.1968,122.1968 0 0 1 -244.39361,0 122.1968,122.1968 0 1 1 244.39361,0 z" />
      <path
         inkscape:connector-curvature="0"
         style="color:#000000;fill:#cc9933;fill-opacity:1;stroke:#000000;stroke-width:1.49819863;stroke-linecap:butt;stroke-linejoin:miter;stroke-miterlimit:4;stroke-opacity:1;stroke-dasharray:none;stroke-dashoffset:0;marker:none;visibility:visible;display:inline;overflow:visible;enable-background:accumulate"
         id="path3687"
         d="m 249.12807,209.09355 c -22.61824,0 -40.95076,18.33251 -40.95076,40.95076 0,22.61824 18.33252,40.95076 40.95076,40.95076 22.61825,0 40.95076,-18.33252 40.95076,-40.95076 0,-22.61825 -18.33251,-40.95076 -40.95076,-40.95076 z m 0,13.35893 c 15.23899,0 27.59183,12.35284 27.59183,27.59183 0,15.23898 -12.35284,27.59182 -27.59183,27.59182 -15.23898,0 -27.59182,-12.35284 -27.59182,-27.59182 0,-15.23899 12.35284,-27.59183 27.59182,-27.59183 z" />
      <path
         inkscape:connector-curvature="0"
         style="color:#000000;fill:none;stroke:#000000;stroke-width:2.99639726;stroke-linecap:butt;stroke-linejoin:miter;stroke-miterlimit:4;stroke-opacity:1;stroke-dasharray:none;stroke-dashoffset:0;marker:none;visibility:visible;display:inline;overflow:visible;enable-background:accumulate"
         id="path3758"
         d="m 249.12807,209.09355 c -22.61824,0 -40.95076,18.33251 -40.95076,40.95076 0,22.61824 18.33252,40.95076 40.95076,40.95076 22.61825,0 40.95076,-18.33252 40.95076,-40.95076 0,-22.61825 -18.33251,-40.95076 -40.95076,-40.95076 z" />
    </g>
    <g
       style="fill:#44423c;fill-opacity:1;stroke:#cac3b6;stroke-width:2.38678861;stroke-linecap:round;stroke-linejoin:round;stroke-miterlimit:4;stroke-opacity:1;stroke-dasharray:none;overflow:visible"
       id="Ankare-tross"
       transform="matrix(1.6736947,0.00403638,-0.00403552,1.6740542,4.0920963,7.4248217)">
      <g
         style="fill:#44423c;fill-opacity:1;stroke:#cac3b6;stroke-width:1.80976224;stroke-linecap:round;stroke-linejoin:round;stroke-miterlimit:4;stroke-opacity:1;stroke-dasharray:none"
         id="Tross-under"
         transform="matrix(1.318841,0,0,1.318841,-157.759,-85.11218)">
        <path
           inkscape:connector-curvature="0"
           style="fill:#44423c;fill-opacity:1;stroke:#cac3b6;stroke-width:1.80976224;stroke-linecap:round;stroke-linejoin:round;stroke-miterlimit:4;stroke-opacity:1;stroke-dasharray:none"
           id="path3059"
           d="m 272.45167,123.68195 c -2.04644,-18.41839 -30.44072,-32.576729 -33.63827,-34.330861 -2.63085,-3.085442 -7.47115,4.460055 -4.60447,6.264749 4.60447,1.378257 14.70874,9.021242 19.31322,13.406572 4.60447,4.38533 9.33687,9.89833 9.97636,12.27893 0.63952,2.38061 0.63952,2.50591 0.63952,2.50591 l 8.31364,-0.1253 z" />
        <path
           inkscape:connector-curvature="0"
           style="fill:#44423c;fill-opacity:1;stroke:#cac3b6;stroke-width:1.80976224;stroke-linecap:round;stroke-linejoin:round;stroke-miterlimit:4;stroke-opacity:1;stroke-dasharray:none"
           id="path3071"
           d="m 192.44724,239.46334 c 1.83452,-19.49136 4.11105,-39.72341 35.22259,-61.69549 31.11153,-21.97206 36.30034,-45.87023 36.30034,-45.87023 0,0 -1.36526,-0.1038 8.36065,-0.1038 -2.1085,14.65521 -11.26885,31.81939 -44.66099,56.26174 -24.60202,17.9515 -24.40845,41.68537 -26.05331,56.4945 -5.44336,-1.7585 -2.17793,-0.50471 -4.76418,-1.86498 -2.58626,-1.36029 -4.4051,-3.22174 -4.4051,-3.22174 z" />
        <path
           inkscape:connector-curvature="0"
           style="fill:#44423c;fill-opacity:1;stroke:#cac3b6;stroke-width:1.80976224;stroke-linecap:round;stroke-linejoin:round;stroke-miterlimit:4;stroke-opacity:1;stroke-dasharray:none"
           id="path3107"
           d="m 190.80379,252.98745 c -1.53748,5.13862 -1.17571,7.44215 -0.27132,9.30268 0.90442,1.86055 3.07498,3.01232 4.43158,2.21494 1.35662,-0.79737 2.89411,-2.03774 3.61763,-3.72108 0.72353,-1.68334 1.71837,-3.80967 1.71837,-3.80967 l -9.49626,-3.98687 z" />
        <path
           inkscape:connector-curvature="0"
           style="fill:#44423c;fill-opacity:1;stroke:#cac3b6;stroke-width:1.80976224;stroke-linecap:round;stroke-linejoin:round;stroke-miterlimit:4;stroke-opacity:1;stroke-dasharray:none"
           id="path3061"
           d="m 264.01013,122.80488 5.6277,-6.76594" />
        <path
           inkscape:connector-curvature="0"
           style="fill:#44423c;fill-opacity:1;stroke:#cac3b6;stroke-width:1.80976224;stroke-linecap:round;stroke-linejoin:round;stroke-miterlimit:4;stroke-opacity:1;stroke-dasharray:none"
           id="path3063"
           d="m 263.88223,107.51888 -4.22078,7.39241" />
        <path
           inkscape:connector-curvature="0"
           style="fill:#44423c;fill-opacity:1;stroke:#cac3b6;stroke-width:1.80976224;stroke-linecap:round;stroke-linejoin:round;stroke-miterlimit:4;stroke-opacity:1;stroke-dasharray:none"
           id="path3073"
           d="m 272.06804,132.75289 -9.78452,4.19739" />
        <path
           inkscape:connector-curvature="0"
           style="fill:#44423c;fill-opacity:1;stroke:#cac3b6;stroke-width:1.80976224;stroke-linecap:round;stroke-linejoin:round;stroke-miterlimit:4;stroke-opacity:1;stroke-dasharray:none"
           id="path3075"
           d="m 269.8937,141.27295 -9.84847,0.87707" />
        <path
           inkscape:connector-curvature="0"
           style="fill:#44423c;fill-opacity:1;stroke:#cac3b6;stroke-width:1.80976224;stroke-linecap:round;stroke-linejoin:round;stroke-miterlimit:4;stroke-opacity:1;stroke-dasharray:none"
           id="path3077"
           d="m 266.82404,148.10155 -10.36007,0.25059" />
        <path
           inkscape:connector-curvature="0"
           style="fill:#44423c;fill-opacity:1;stroke:#cac3b6;stroke-width:1.80976224;stroke-linecap:round;stroke-linejoin:round;stroke-miterlimit:4;stroke-opacity:1;stroke-dasharray:none"
           id="path3079"
           d="m 261.45215,156.43368 -9.40081,-1.69149" />
        <path
           inkscape:connector-curvature="0"
           style="fill:#44423c;fill-opacity:1;stroke:#cac3b6;stroke-width:1.80976224;stroke-linecap:round;stroke-linejoin:round;stroke-miterlimit:4;stroke-opacity:1;stroke-dasharray:none"
           id="path3081"
           d="m 255.88842,163.3249 -8.95315,-2.44325" />
        <path
           inkscape:connector-curvature="0"
           style="fill:#44423c;fill-opacity:1;stroke:#cac3b6;stroke-width:1.80976224;stroke-linecap:round;stroke-linejoin:round;stroke-miterlimit:4;stroke-opacity:1;stroke-dasharray:none"
           id="path3093"
           d="m 218.22121,196.40283 -10.48798,-0.37589" />
        <path
           inkscape:connector-curvature="0"
           style="fill:#44423c;fill-opacity:1;stroke:#cac3b6;stroke-width:1.80976224;stroke-linecap:round;stroke-linejoin:round;stroke-miterlimit:4;stroke-opacity:1;stroke-dasharray:none"
           id="path3095"
           d="m 213.42489,202.79287 -10.99959,0.56384" />
        <path
           inkscape:connector-curvature="0"
           style="fill:#44423c;fill-opacity:1;stroke:#cac3b6;stroke-width:1.80976224;stroke-linecap:round;stroke-linejoin:round;stroke-miterlimit:4;stroke-opacity:1;stroke-dasharray:none"
           id="path3097"
           d="m 209.58783,209.24557 -10.48799,0.62648" />
        <path
           inkscape:connector-curvature="0"
           style="fill:#44423c;fill-opacity:1;stroke:#cac3b6;stroke-width:1.80976224;stroke-linecap:round;stroke-linejoin:round;stroke-miterlimit:4;stroke-opacity:1;stroke-dasharray:none"
           id="path3099"
           d="m 206.96583,215.51034 -10.74379,2.00472" />
        <path
           inkscape:connector-curvature="0"
           style="fill:#44423c;fill-opacity:1;stroke:#cac3b6;stroke-width:1.80976224;stroke-linecap:round;stroke-linejoin:round;stroke-miterlimit:4;stroke-opacity:1;stroke-dasharray:none"
           id="path3101"
           d="m 204.72754,222.52686 -10.29614,2.00473" />
        <path
           inkscape:connector-curvature="0"
           style="fill:#44423c;fill-opacity:1;stroke:#cac3b6;stroke-width:1.80976224;stroke-linecap:round;stroke-linejoin:round;stroke-miterlimit:4;stroke-opacity:1;stroke-dasharray:none"
           id="path3103"
           d="m 203.32061,229.91928 -9.97637,1.50354" />
        <path
           inkscape:connector-curvature="0"
           style="fill:#44423c;fill-opacity:1;stroke:#cac3b6;stroke-width:1.80976224;stroke-linecap:round;stroke-linejoin:round;stroke-miterlimit:4;stroke-opacity:1;stroke-dasharray:none"
           id="path3105"
           d="m 202.61714,236.49728 -9.84847,2.06737" />
        <path
           inkscape:connector-curvature="0"
           style="fill:#44423c;fill-opacity:1;stroke:#cac3b6;stroke-width:1.80976224;stroke-linecap:round;stroke-linejoin:round;stroke-miterlimit:4;stroke-opacity:1;stroke-dasharray:none"
           id="path3109"
           d="m 199.70741,257.2696 -9.84847,2.06736" />
      </g>
      <path
         inkscape:connector-curvature="0"
         style="fill:#44423c;fill-opacity:1;fill-rule:evenodd;stroke:#cac3b6;stroke-width:2.38678861;stroke-linecap:round;stroke-linejoin:round;stroke-miterlimit:4;stroke-opacity:1;stroke-dasharray:none"
         id="Ankare"
         d="m 147.39982,11.766232 c -13.75625,3.1e-5 -24.31664,10.75663 -24.3125,23.96875 -0.003,9.909089 6.25834,18.36775 15.1875,22 l 0,17.375 -50.093746,0 c -2.940892,3e-6 -2.64594,15.37453 -0.4375,15.4375 l 49.781246,-0.125 c 0.0558,11.882928 0.21416,23.742198 0.0625,35.624998 -0.56076,24.54547 -1.02175,49.13663 -1.25,73.6875 -0.10084,13.29624 -0.57647,26.01778 -1.09375,28.3125 -1.94968,8.6491 -7.40631,9.79588 -24.21875,5.1875 -17.484408,-4.79254 -39.219766,-15.39009 -42.874996,-20.96875 -2.9059,-4.43501 -3.38137,-8.27309 -1.28125,-10.59375 1.047029,-1.15697 2.613,-1.85961 3.46875,-1.53125 0.94617,0.36302 1.9334,-0.37704 2.53125,-1.96875 2.104551,-5.6031 -4.91453,-13.92946 -18.75,-22.15625 -3.36276,-1.99962 -8.85596,-6.25111 -12.21875,-9.5 -3.52836,-3.40884 -6.59471,-5.58482 -7.3125,-5.125 -2.23339,1.43068 -6.84592,11.76686 -8.25,18.5625 -2.82263,13.66114 0.78304,33.84165 7.4375,41.75 3.51275,4.17465 5.49364,4.18796 6.3125,0.0937 1.44278,-7.21397 10.40593,-5.12774 20.1875,4.6875 7.74149,7.76811 22.45473,19.01237 28.875,22.0625 2.44564,1.16188 5.94701,3.04054 7.78125,4.1875 1.83421,1.14694 7.327436,3.45209 12.218746,5.125 10.24723,3.50487 26.2485,9.71756 31,13.96875 1.80508,1.61496 4.72828,5.5 7.25,5.5 2.28075,0 5.41367,-3.88504 7.21875,-5.5 4.7515,-4.25119 20.72153,-10.46388 30.96875,-13.96875 4.89131,-1.67291 10.41579,-3.97806 12.25,-5.125 1.83424,-1.14696 5.33562,-3.02562 7.78125,-4.1875 6.42027,-3.05013 21.13351,-14.29439 28.875,-22.0625 9.78157,-9.81524 18.74471,-11.90147 20.1875,-4.6875 0.81886,4.09421 2.79975,4.0809 6.3125,-0.0937 6.65446,-7.90835 10.26013,-28.08886 7.4375,-41.75 -1.40408,-6.79564 -6.01661,-17.13182 -8.25,-18.5625 -0.71779,-0.45982 -3.78415,1.71616 -7.3125,5.125 -3.36279,3.24889 -8.85599,7.50038 -12.21875,9.5 -13.83547,8.22679 -20.85456,16.55315 -18.75,22.15625 0.59785,1.59171 1.58508,2.33177 2.53125,1.96875 0.85575,-0.32836 2.42171,0.37428 3.46875,1.53125 2.10012,2.32066 1.62464,6.15874 -1.28125,10.59375 -3.65523,5.57866 -25.42183,16.17621 -42.90625,20.96875 -16.81244,4.60838 -22.23782,3.4616 -24.1875,-5.1875 -0.51728,-2.29472 -0.99291,-15.01626 -1.09375,-28.3125 -0.22825,-24.55087 -0.68924,-49.14203 -1.25,-73.6875 -0.15166,-11.8828 0.007,-23.74207 0.0625,-35.624998 l 49.78125,0.125 c 2.20844,-0.06297 2.50339,-15.437497 -0.4375,-15.4375 l -50.09375,0 0,-17.375 c 8.92916,-3.63225 15.19059,-12.090911 15.1875,-22 0.004,-13.21212 -10.52501,-23.968719 -24.28125,-23.96875 z m -0.1875,11.6875 c 6.48986,-10e-7 11.75,5.26014 11.75,11.75 0,6.489859 -5.26014,11.75 -11.75,11.75 -6.48986,-1e-6 -11.75,-5.26014 -11.75,-11.75 0,-6.48986 5.26014,-11.75 11.75,-11.75 z" />
      <g
         style="fill:#44423c;fill-opacity:1;stroke:#cac3b6;stroke-width:1.80976224;stroke-linecap:round;stroke-linejoin:round;stroke-miterlimit:4;stroke-opacity:1;stroke-dasharray:none"
         id="Tross-over"
         transform="matrix(1.318841,0,0,1.318841,-157.759,-85.11218)">
        <path
           inkscape:connector-curvature="0"
           style="fill:#44423c;fill-opacity:1;stroke:#cac3b6;stroke-width:1.80976224;stroke-linecap:round;stroke-linejoin:round;stroke-miterlimit:4;stroke-opacity:1;stroke-dasharray:none"
           id="Tross-outline2"
           d="m 213.02362,189.95021 c 1.33104,-1.33467 2.75392,-2.6754 4.27557,-4.02244 3.0433,-2.69409 6.4817,-5.41341 10.37064,-8.15992 3.88894,-2.74651 7.37284,-5.52311 10.49219,-8.27937 0.77984,-0.68907 1.53689,-1.37686 2.2718,-2.06259 0,0 9.54394,2.11433 9.54394,2.11433 -0.16738,0.16264 -0.33595,0.32565 -0.50573,0.48903 -0.33955,0.32676 -0.6839,0.65498 -1.03312,0.98469 -5.5875,5.27533 -12.42104,10.93103 -20.76908,17.04162 -1.53763,1.12197 -2.97839,2.26652 -4.32881,3.43008 0,0 -10.3174,-1.53543 -10.3174,-1.53543 z" />
        <path
           inkscape:connector-curvature="0"
           style="fill:#44423c;fill-opacity:1;stroke:#cac3b6;stroke-width:1.80976224;stroke-linecap:round;stroke-linejoin:round;stroke-miterlimit:4;stroke-opacity:1;stroke-dasharray:none"
           id="Tross-outline1"
           d="m 256.0642,100.26742 c -7.75407,-6.061147 -15.65203,-10.039265 -17.2508,-10.916331 -2.63085,-3.085442 -7.47115,4.460055 -4.60447,6.264749 4.60447,1.378257 14.70874,9.021242 19.31322,13.406572 0,0 2.54205,-8.75499 2.54205,-8.75499 z" />
        <path
           inkscape:connector-curvature="0"
           style="fill:#44423c;fill-opacity:1;stroke:#cac3b6;stroke-width:1.80976224;stroke-linecap:round;stroke-linejoin:round;stroke-miterlimit:4;stroke-opacity:1;stroke-dasharray:none"
           id="path2885"
           d="m 247.89446,94.989361 -0.89532,8.394779" />
        <path
           inkscape:connector-curvature="0"
           style="fill:#44423c;fill-opacity:1;stroke:#cac3b6;stroke-width:1.80976224;stroke-linecap:round;stroke-linejoin:round;stroke-miterlimit:4;stroke-opacity:1;stroke-dasharray:none"
           id="path2887"
           d="m 238.6855,89.476376 0,8.269484" />
        <path
           inkscape:connector-curvature="0"
           style="fill:#44423c;fill-opacity:1;stroke:#cac3b6;stroke-width:1.80976224;stroke-linecap:round;stroke-linejoin:round;stroke-miterlimit:4;stroke-opacity:1;stroke-dasharray:none"
           id="path2909"
           d="m 244.05747,175.10265 -9.46478,-2.38061" />
        <path
           inkscape:connector-curvature="0"
           style="fill:#44423c;fill-opacity:1;stroke:#cac3b6;stroke-width:1.80976224;stroke-linecap:round;stroke-linejoin:round;stroke-miterlimit:4;stroke-opacity:1;stroke-dasharray:none"
           id="path2911"
           d="m 236.91501,180.86623 -9.46477,-3.00707" />
        <path
           inkscape:connector-curvature="0"
           style="fill:#44423c;fill-opacity:1;stroke:#cac3b6;stroke-width:1.80976224;stroke-linecap:round;stroke-linejoin:round;stroke-miterlimit:4;stroke-opacity:1;stroke-dasharray:none"
           id="path2913"
           d="m 230.11612,185.94067 -9.84847,-2.50589" />
      </g>
    </g>
  </g>
</svg>