<?xml version="1.0" encoding="iso-8859-1"?>
<!-- Uploaded to: SVG Repo, www.svgrepo.com, Generator: SVG Repo Mixer Tools -->
<!DOCTYPE svg PUBLIC "-//W3C//DTD SVG 1.1//EN" "http://www.w3.org/Graphics/SVG/1.1/DTD/svg11.dtd">
<svg fill="#000000" height="800px" width="800px" version="1.1" id="Capa_1" xmlns="http://www.w3.org/2000/svg" xmlns:xlink="http://www.w3.org/1999/xlink" 
	 viewBox="0 0 482.661 482.661" xml:space="preserve">
<g>
	<path d="M452.079,467.661h-50.975v-15.368c0-35.193-9.385-62.355-27.894-80.732c-1.662-1.649-3.354-3.171-5.064-4.597
		c-0.078-0.066-0.156-0.132-0.237-0.194c-22.5-18.621-47.998-18.689-49.105-18.682H298.5c-0.009,0-0.017,0-0.025,0h-17.244v-11.729
		c0-0.397-0.04-0.783-0.1-1.163c24.057-9.941,39.262-26.521,48.52-40.896c9.789-15.2,14.434-30.003,16.451-38.244
		c5.877-1.136,10.967-3.97,14.935-8.364c10.618-11.756,10.002-30.305,9.244-37.735c-0.576-5.655-3.135-10.399-7.398-13.722
		c-0.166-0.129-0.336-0.249-0.504-0.372c4.107-11.736,5.907-22.887,5.339-33.224c-0.21-3.824-0.732-6.977-1.3-9.436
		c1.11-1.159,1.855-2.664,2.045-4.338l10.688-94.778c1.625-3.054,0.965-6.931-1.786-9.251c-0.887-0.747-22.03-18.246-52.567-17.551
		C308.435,10.856,277.52,0,241.331,0c-36.184,0-67.094,10.852-83.459,27.276c-25.322-0.163-43.964,12.016-49.601,16.194
		c-0.928,0.312-1.801,0.797-2.558,1.461c-1.844,1.619-2.779,4.038-2.505,6.477l10.989,97.456c0.181,1.597,0.869,3.044,1.901,4.184
		c-0.581,2.48-1.12,5.685-1.335,9.589c-0.568,10.336,1.232,21.487,5.339,33.224c-0.169,0.123-0.339,0.243-0.504,0.372
		c-4.264,3.323-6.822,8.067-7.398,13.723c-0.758,7.429-1.374,25.978,9.244,37.734c4.011,4.439,9.167,7.284,15.122,8.395
		c2.022,8.247,6.666,23.032,16.443,38.213c9.258,14.375,24.463,30.956,48.52,40.896c-0.06,0.38-0.1,0.767-0.1,1.163v11.729h-37.518
		c-1.136-0.005-26.657,0.05-49.173,18.693c-0.086,0.067-0.17,0.137-0.254,0.208c-1.699,1.419-3.382,2.933-5.034,4.573
		c-18.509,18.377-27.894,45.54-27.894,80.732v15.368H30.583c-4.143,0-7.5,3.358-7.5,7.5c0,4.142,3.357,7.5,7.5,7.5h421.496
		c4.143,0,7.5-3.358,7.5-7.5C459.579,471.019,456.221,467.661,452.079,467.661z M386.103,452.293v15.368H261.547l101.549-84.974
		C378.356,398.151,386.103,421.557,386.103,452.293z M128.514,141.959l-9.229-81.856c19.173,3.798,63.327,11.027,121.668,11.027
		c41.873,0,83.01-3.771,122.445-11.218l-9.228,81.84c-37.825,7.442-76.65,11.212-115.495,11.212
		C182.696,152.964,142.064,145.016,128.514,141.959z M349.906,237.637c-0.721,0.798-1.509,1.455-2.357,2.007v-33.599
		c1.091,0.127,2.186,0.324,3.192,0.623c0.032,0.01,0.063,0.021,0.096,0.03c1.085,0.33,2.066,0.774,2.826,1.366
		c0.725,0.564,1.492,1.412,1.697,3.413C356.25,220.218,355.287,231.68,349.906,237.637z M347.548,190.977v-32.373
		c0-0.115-0.012-0.227-0.017-0.34c1.494-0.269,2.984-0.554,4.477-0.834c1.13,5.594,1.976,17.027-3.83,33.597
		C347.966,191.008,347.757,190.992,347.548,190.977z M350.733,46.94c-4.615,0.792-9.252,1.536-13.91,2.227
		c-0.357-2.143-0.927-4.245-1.69-6.302C340.96,43.667,346.223,45.191,350.733,46.94z M182.315,27.92
		C197.954,19.588,218.913,15,241.331,15c22.417,0,43.376,4.588,59.015,12.92c12.272,6.538,19.93,14.865,21.587,23.275
		c-26.474,3.276-53.561,4.935-80.979,4.935c-31.438,0-58.88-2.206-80.245-4.789C162.303,42.881,169.972,34.497,182.315,27.92z
		 M145.81,49.356c-5.025-0.734-9.545-1.462-13.517-2.146c4.357-1.75,9.468-3.309,15.178-4.191
		C146.714,45.087,146.157,47.202,145.81,49.356z M130.4,157.742c1.437,0.3,3.006,0.619,4.713,0.952v32.269
		c-0.268,0.019-0.537,0.04-0.812,0.064C128.574,174.716,129.277,163.462,130.4,157.742z M127.123,211.478
		c0.204-1.993,0.964-2.837,1.681-3.4c0.76-0.597,1.743-1.045,2.834-1.377c0.026-0.008,0.053-0.016,0.079-0.023
		c1.067-0.318,2.234-0.525,3.396-0.65v33.729c-0.919-0.572-1.766-1.266-2.536-2.119C127.196,231.68,126.232,220.218,127.123,211.478
		z M165.92,286.639c-11.735-18.011-15.267-35.842-15.808-38.914v-86.4c20.735,3.27,51.169,6.639,88.563,6.639
		c31.466,0,62.923-2.418,93.873-7.197v86.967c-0.529,3.061-3.936,20.472-15.509,38.442c-16.802,26.09-42.041,40.432-75.011,42.63
		h-1.396C207.866,326.623,182.729,312.436,165.92,286.639z M208.93,363.087c4.143,0,7.5-3.358,7.5-7.5v-15.464
		c7.174,1.837,14.973,3.118,23.472,3.669c0.162,0.01,0.323,0.016,0.485,0.016h1.887c0.162,0,0.323-0.005,0.485-0.016
		c8.499-0.551,16.298-1.832,23.472-3.669v15.464c0,4.142,3.357,7.5,7.5,7.5h10.313l-44.437,63.964l-41.523-63.964H208.93z
		 M180.201,363.087l52.905,81.497c1.36,2.095,3.675,3.376,6.174,3.415c0.039,0.001,0.078,0.001,0.117,0.001
		c2.454,0,4.757-1.202,6.159-3.221l56.753-81.692h16.547c0.002,0,0.005,0,0.009,0c0.478,0,16.202,0.129,32.263,10.056
		l-109.065,91.263l-110.514-91.328c15.683-9.75,30.99-9.991,32.311-9.991H180.201z M96.558,452.293
		c0-35.406,10.406-56.753,23.038-69.633l102.858,85.001H96.558V452.293z"/>
	<circle cx="188.093" cy="194.994" r="8.952"/>
	<circle cx="294.567" cy="194.994" r="8.951"/>
	<path d="M239.396,247.722h3.869c9.925,0,18-8.075,18-18c0-4.142-3.357-7.5-7.5-7.5c-4.143,0-7.5,3.358-7.5,7.5c0,1.654-1.346,3-3,3
		h-3.869c-1.654,0-3-1.346-3-3c0-4.142-3.357-7.5-7.5-7.5c-4.143,0-7.5,3.358-7.5,7.5
		C221.396,239.647,229.471,247.722,239.396,247.722z"/>
	<path d="M269.001,113.773c0-4.142-3.357-7.5-7.5-7.5c-4.143,0-7.5,3.358-7.5,7.5c0,3.581-1.624,6.788-4.171,8.931v-16.876
		c4.121-0.024,7.456-3.372,7.456-7.499c0-4.142-3.358-7.5-7.5-7.5h-2.897c0.554-0.851,0.879-1.866,0.879-2.957
		c0-3.001-2.437-5.436-5.438-5.436c-3.001,0-5.438,2.434-5.438,5.436c0,1.092,0.325,2.106,0.879,2.957h-2.897
		c-4.143,0-7.5,3.358-7.5,7.5c0,4.128,3.334,7.474,7.456,7.498v16.878c-2.547-2.143-4.171-5.35-4.171-8.931
		c0-4.142-3.357-7.5-7.5-7.5c-4.143,0-7.5,3.358-7.5,7.5c0,14.707,11.965,26.672,26.671,26.672S269.001,128.48,269.001,113.773z"/>
	<path d="M287.825,277.731c2.601-3.224,2.095-7.946-1.13-10.546c-3.225-2.601-7.947-2.094-10.546,1.129
		c-0.08,0.1-9.089,9.939-32.971,9.939c-24.809,0-36.903-10.295-37.494-10.813c-3.061-2.749-7.774-2.52-10.552,0.528
		c-2.791,3.061-2.572,7.805,0.489,10.595c0.657,0.6,16.467,14.689,47.557,14.689C274.404,293.253,286.543,279.32,287.825,277.731z"
		/>
</g>
</svg>